# xmcd
#
# Track frame offsets: 
#        150
#        21348
#        42278
#        62575
#        79161
#        96582
#        121912
#        139613
#        159234
#        187908
#
# Disc length: 2777 seconds
#
# Revision: 0
# Processed by: cddbd v1.5.2PL0 Copyright (c) Steve Scherf et al.
# Submitted via: ExactAudioCopy v1.3
#
DISCID=7c0ad70a
DTITLE=Biscuit Miller and The Mix - Chicken Grease
DYEAR=2019
DGENRE=Blues
TTITLE0=Here Kitty Kitty
TTITLE1=609
TTITLE2=Lonely Road
TTITLE3=Two Legged Dog
TTITLE4=Chicken Grease
TTITLE5=Watching You
TTITLE6=Take a Ride
TTITLE7=Southern Woman
TTITLE8=Creeping
TTITLE9=Get Ready
EXTD=
EXTT0=
EXTT1=
EXTT2=
EXTT3=
EXTT4=
EXTT5=
EXTT6=
EXTT7=
EXTT8=
EXTT9=
PLAYORDER=
